# xmcd
#
# Track frame offsets:
#   150
#   16020
#   30713
#   42059
#   61477
#   80460
#   97884
#   116225
#   131445
#   147505
#   167415
#   185689
#   202278
#   220231
#   230946
#   246252
#   260302
#   277804
#
# Disc length: 3912 seconds
#
# Revision: 0
# Processed by: cddbd v1.5.2PL0 Copyright (c) Steve Scherf et al.
# Submitted via: uFREEDB ActiveX Control 1.5
#
DISCID=040f4612
DTITLE=Varios - Estação Sertaneja
DYEAR=2004
DGENRE=Country
TTITLE0=Coração Chora
TTITLE1=An Ran,An Ran
TTITLE2=Duas Metades
TTITLE3=A Carta
TTITLE4=Encontro Casual
TTITLE5=Nos Bares da Vida
TTITLE6=Tentei te Esquecer
TTITLE7=Se Amanhã Não Chover
TTITLE8=Minha Historia é Sua
TTITLE9=A Gente Não Consegue se Amar 
TTITLE10=Meu Anjo
TTITLE11=Preciso Esquecer Que Chorei
TTITLE12=Galera Felicidade
TTITLE13=Vou Beber de Novo
TTITLE14=Escravo do Amor
TTITLE15=Águas de Minha Saudade
TTITLE16=Inevitável
TTITLE17=O Nosso Amor É Ouro
EXTD=
EXTT0=
EXTT1=
EXTT2=
EXTT3=
EXTT4=
EXTT5=
EXTT6=
EXTT7=
EXTT8=
EXTT9=
EXTT10=
EXTT11=
EXTT12=
EXTT13=
EXTT14=
EXTT15=
EXTT16=
EXTT17=
PLAYORDER=
